<svg id="Layer_2" data-name="Layer 2" xmlns="http://www.w3.org/2000/svg" viewBox="0 0 595.28 841.89"><defs><style>.cls-1{fill:none;stroke:#f7ee5f;stroke-miterlimit:10;stroke-width:10px;}.cls-2{fill:#f7ee5f;}</style></defs><circle class="cls-1" cx="297.64" cy="407.97" r="234.54"/><path class="cls-2" d="M444.14,279.16,444.47,532a17.21,17.21,0,0,1-17.21,17.22h-.41A17.21,17.21,0,0,1,409.64,532V417.83c0-17.77-23.66-23.88-32.26-8.33L311.94,527.83a17.21,17.21,0,0,1-30.11,0L217.48,411.6c-8.61-15.54-32.26-9.43-32.26,8.33V532a17.2,17.2,0,0,1-17.2,17.2h0A17.2,17.2,0,0,1,150.81,532V278.4c0-17.74,23.59-23.87,32.23-8.38L283.1,449.42a17.2,17.2,0,0,0,30.08-.06l98.7-178.5C420.47,255.32,444.12,261.4,444.14,279.16Z"/></svg>